<?xml version="1.0" standalone="no"?>
<!DOCTYPE svg PUBLIC "-//W3C//DTD SVG 20010904//EN"
 "http://www.w3.org/TR/2001/REC-SVG-20010904/DTD/svg10.dtd">
<svg version="1.0" xmlns="http://www.w3.org/2000/svg"
 width="1657.000000pt" height="803.000000pt" viewBox="0 0 1657.000000 803.000000"
 preserveAspectRatio="xMidYMid meet">

<g transform="translate(0.000000,803.000000) scale(0.100000,-0.100000)"
fill="#000000" stroke="none">
<path d="M12940 7999 c-166 -11 -467 -51 -644 -85 -596 -115 -1137 -332 -1692
-679 -74 -46 -134 -82 -134 -80 0 1 47 178 105 393 58 215 105 395 105 401 0
8 -418 11 -1418 11 l-1418 0 -1158 -1321 c-637 -726 -1159 -1319 -1161 -1317
-3 3 -809 2322 -887 2551 l-30 87 -1267 0 -1267 0 -833 -3102 c-458 -1707
-914 -3404 -1012 -3773 -99 -369 -186 -691 -193 -718 l-14 -47 1267 0 1266 0
199 743 c606 2263 787 2934 793 2949 6 12 171 -409 523 -1329 l515 -1345 74
78 c41 44 165 178 275 299 551 605 2119 2305 2122 2302 2 -2 -129 -498 -291
-1103 -162 -604 -383 -1427 -490 -1829 -108 -401 -198 -738 -201 -747 -5 -17
60 -18 1278 -18 l1283 0 96 358 c77 283 94 360 85 374 -6 9 -38 56 -71 105
-207 305 -346 707 -411 1183 -21 158 -30 614 -15 810 31 418 123 858 259 1245
46 131 133 348 138 342 1 -1 -20 -89 -47 -194 -260 -1024 -192 -1962 199
-2734 226 -445 568 -840 982 -1130 757 -531 1765 -750 2870 -623 948 109 1714
453 2402 1081 163 148 518 535 518 565 0 6 -1765 1408 -1773 1408 -2 0 -84
-80 -183 -178 -105 -104 -225 -212 -289 -260 -369 -274 -745 -387 -1140 -342
-312 36 -539 135 -721 314 -75 75 -166 204 -206 296 -252 568 -112 1434 325
2022 394 531 990 794 1610 713 275 -36 511 -148 679 -322 111 -115 225 -309
289 -492 29 -82 34 -92 53 -87 12 3 523 226 1136 494 l1115 489 -1 31 c-2 34
-67 238 -121 377 -58 151 -197 423 -283 555 -487 743 -1221 1151 -2280 1265
-174 19 -715 28 -910 14z"/>
</g>
</svg>
